<svg width="192" height="192" viewBox="0 0 192 192" fill="none" xmlns="http://www.w3.org/2000/svg">
<rect x="7.26001" y="7" width="177.48" height="177.48" rx="48.72" fill="#DBFFC9"/>
<rect x="7.26001" y="7" width="177.48" height="177.48" rx="48.72" stroke="#ECFFE3" stroke-width="13.92"/>
<path d="M87.1822 48.1699H65.3235C62.3069 48.1699 59.8588 50.6181 59.8588 53.6346V137.426C59.8588 140.443 62.3069 142.891 65.3235 142.891H127.257C130.273 142.891 132.721 140.443 132.721 137.426V93.709M87.1822 48.1699H89.0038C100.598 48.1699 111.718 52.7759 119.917 60.9745C128.115 69.1731 132.721 80.2928 132.721 91.8874V93.709M87.1822 48.1699C91.5302 48.1699 95.7001 49.8971 98.7746 52.9716C101.849 56.0461 103.576 60.216 103.576 64.564V71.8502C103.576 74.8667 106.024 77.3149 109.041 77.3149H116.327C120.675 77.3149 124.845 79.0422 127.92 82.1166C130.994 85.1911 132.721 89.361 132.721 93.709M81.7175 110.103L92.6469 121.032L110.863 95.5305" stroke="url(#paint0_linear_453_323)" stroke-width="8" stroke-linecap="round" stroke-linejoin="round"/>
<defs>
<linearGradient id="paint0_linear_453_323" x1="60" y1="48" x2="133" y2="143" gradientUnits="userSpaceOnUse">
<stop stop-color="#47D5C4"/>
<stop offset="1" stop-color="#7ACE67"/>
</linearGradient>
</defs>
</svg>
