<svg width="192" height="192" viewBox="0 0 192 192" fill="none" xmlns="http://www.w3.org/2000/svg">
<rect x="7.26001" y="7.40039" width="177.48" height="177.48" rx="48.72" fill="#FEF0C7"/>
<rect x="7.26001" y="7.40039" width="177.48" height="177.48" rx="48.72" stroke="#FFFAEB" stroke-width="13.92"/>
<path d="M96 70.9818V92.1278M96 113.274H96.0533M86.887 43.8093L41.7483 118.56C40.8177 120.159 40.3253 121.972 40.32 123.818C40.3148 125.664 40.797 127.479 41.7186 129.083C42.6402 130.687 43.9692 132.024 45.5732 132.96C47.1772 133.896 49.0004 134.399 50.8613 134.42H141.139C143 134.399 144.823 133.896 146.427 132.96C148.031 132.024 149.36 130.687 150.281 129.083C151.203 127.479 151.685 125.664 151.68 123.818C151.675 121.972 151.182 120.159 150.252 118.56L105.113 43.8093C104.163 42.2556 102.825 40.971 101.229 40.0796C99.6328 39.1881 97.8318 38.7197 96 38.7197C94.1682 38.7197 92.3672 39.1881 90.771 40.0796C89.1747 40.971 87.837 42.2556 86.887 43.8093Z" stroke="#DC6803" stroke-width="8.7" stroke-linecap="round" stroke-linejoin="round"/>
</svg>
