<svg width="192" height="192" viewBox="0 0 192 192" fill="none" xmlns="http://www.w3.org/2000/svg">
<rect x="7.26001" y="7" width="177.48" height="177.48" rx="48.72" fill="#3F3375" fill-opacity="0.25"/>
<rect x="7.26001" y="7" width="177.48" height="177.48" rx="48.72" stroke="#3F3375" stroke-opacity="0.1" stroke-width="13.92"/>
<path d="M96.0001 70.5805V91.7264M96.0001 112.872H96.0534M86.8871 43.4079L41.7484 118.159C40.8177 119.758 40.3253 121.57 40.3201 123.416C40.3149 125.263 40.7971 127.078 41.7187 128.682C42.6403 130.286 43.9692 131.622 45.5732 132.558C47.1772 133.495 49.0004 133.998 50.8614 134.018H141.139C143 133.998 144.823 133.495 146.427 132.558C148.031 131.622 149.36 130.286 150.281 128.682C151.203 127.078 151.685 125.263 151.68 123.416C151.675 121.57 151.182 119.758 150.252 118.159L105.113 43.4079C104.163 41.8542 102.825 40.5697 101.229 39.6782C99.6328 38.7867 97.8319 38.3184 96.0001 38.3184C94.1682 38.3184 92.3673 38.7867 90.771 39.6782C89.1748 40.5697 87.8371 41.8542 86.8871 43.4079Z" stroke="#3F3375" stroke-width="8.7" stroke-linecap="round" stroke-linejoin="round"/>
</svg>
